Genre:Thriller
Language:English
IMDb:http://www.imdb.com/title/tt1352388/
Source:PAL.DVDR



Format : MPEG-4
Format profile : Base Media
Codec ID : isom
File size : 699 MiB
Duration : 1h 28mn
Overall bit rate : 1 110 Kbps


Video
Codec ID : avc1
Codec ID/Info : Advanced Video Coding
Duration : 1h 28mn
Bit rate mode : Variable
Bit rate : 943 Kbps
Width : 720 pixels
Height : 384 pixels
Display aspect ratio : 1.875
Frame rate mode : Constant
Frame rate : 23.976 fps
Original frame rate : 23.000 fps
Color space : YUV
Chroma subsampling : 4:2:0
Bit depth : 8 bits
Scan type : Progressive
Bits/(Pixel*Frame) : 0.142
Stream size : 594 MiB (85%)
Writing library : ¼)c
Language : English

Audio
ID : 1
Format : AAC
Format/Info : Advanced Audio Codec
Format version : Version 4
Format profile : LC
Codec ID : 40
Duration : 1h 28mn
Bit rate mode : Constant
Bit rate : 160 Kbps
Channel(s) : 2 channels
Channel positions : Front: L R
Sampling rate : 48.0 KHz
Stream size : 101 MiB (14%)
Language : English



Plot:
Upon taking her vows to become a nun, Sister Sarah is abused, brainwashed and drugged into submission by the corrupt clergy

Greets:

INK,CRYS,IMAGINE,LKRG,FXG,3Li,FLAWL3SS,TA,ViSiON,LU,PrisM,Noir,WBZ,LAP,Rx,Kingdom,SAFCuk009+Fabreezy,HDLiTE,TWiZTED,ExtraTorrentRG.ELEKTRI4KA,MAGNAT,CM8
And to all the other p2p grps past and present





================================== 
http://thepiratebay.org/user/hiest
==================================





Screenshots:
 
http://rapidhdd.com/images/272402vlcsnap-2010-12-24-19h20m36s172.png
 
http://www.rapidhdd.com/images/947509vlcsnap-2010-12-24-19h20m49s44.png
 
http://www.rapidhdd.com/images/568142vlcsnap-2010-12-24-19h21m04s190.png
 
http://www.rapidhdd.com/images/432938vlcsnap-2010-12-24-19h20m57s131.png
 
http://www.rapidhdd.com/images/838548vlcsnap-2010-12-24-19h21m21s106.png
 
http://www.rapidhdd.com/images/533620vlcsnap-2010-12-24-19h21m57s206.png